# xmcd
#
# Track frame offsets: 
#        150
#        16424
#        32210
#        46752
#        62093
#        66457
#        80941
#        93996
#        107984
#        116427
#        131178
#        149084
#        162209
#        180365
#        194768
#
# Disc length: 2805 seconds
#
# Revision: 0
# Processed by: cddbd v1.5.2PL0 Copyright (c) Steve Scherf et al.
# Submitted via: ExactAudioCopyFreeDBPlugin 1.0
#
DISCID=e10af30f
DTITLE=Martin Barre - Back To Steel
DYEAR=2015
DGENRE=Blues
TTITLE0=Back To Steel
TTITLE1=It's Getting Better
TTITLE2=Bad Man
TTITLE3=Skating Away
TTITLE4=Chasing Shadows
TTITLE5=Hammer
TTITLE6=You And I
TTITLE7=Moment Of Madness
TTITLE8=Calafel
TTITLE9=Eleanor Rigby
TTITLE10=Peace And Quiet
TTITLE11=Sea Of Vanity
TTITLE12=Smokestack
TTITLE13=Without Me
TTITLE14=Slow Marching Band
EXTD=
EXTT0=
EXTT1=
EXTT2=
EXTT3=
EXTT4=
EXTT5=
EXTT6=
EXTT7=
EXTT8=
EXTT9=
EXTT10=
EXTT11=
EXTT12=
EXTT13=
EXTT14=
PLAYORDER=
